<svg width="42" height="34" viewBox="0 0 42 34" fill="none" xmlns="http://www.w3.org/2000/svg">
<path d="M16.8333 20.6458L14.5417 16.0625C14.368 15.6805 14.1076 15.3937 13.7604 15.2021C13.4132 15.0118 13.0486 14.9166 12.6667 14.9166H0.166656V4.49998C0.166656 3.35415 0.57499 2.37359 1.39166 1.55831C2.20693 0.741646 3.18749 0.333313 4.33332 0.333313H37.6667C38.8125 0.333313 39.7937 0.741646 40.6104 1.55831C41.4257 2.37359 41.8333 3.35415 41.8333 4.49998V14.9166H30.6354L27.0417 7.72915C26.868 7.3472 26.6076 7.07776 26.2604 6.92081C25.9132 6.76526 25.5486 6.68748 25.1667 6.68748C24.7847 6.68748 24.4201 6.76526 24.0729 6.92081C23.7257 7.07776 23.4653 7.3472 23.2917 7.72915L16.8333 20.6458ZM4.33332 33.6666C3.18749 33.6666 2.20693 33.259 1.39166 32.4437C0.57499 31.6271 0.166656 30.6458 0.166656 29.5V19.0833H11.3646L14.9583 26.2708C15.1319 26.6528 15.3924 26.9396 15.7396 27.1312C16.0868 27.3215 16.4514 27.4166 16.8333 27.4166C17.2153 27.4166 17.5798 27.3215 17.9271 27.1312C18.2743 26.9396 18.5347 26.6528 18.7083 26.2708L25.1667 13.3541L27.4583 17.9375C27.6319 18.3194 27.8924 18.6062 28.2396 18.7979C28.5868 18.9882 28.9514 19.0833 29.3333 19.0833H41.8333V29.5C41.8333 30.6458 41.4257 31.6271 40.6104 32.4437C39.7937 33.259 38.8125 33.6666 37.6667 33.6666H4.33332Z" fill="white"/>
</svg>
