<svg width="23" height="23" viewBox="0 0 23 23" fill="none" xmlns="http://www.w3.org/2000/svg">
<path fill-rule="evenodd" clip-rule="evenodd" d="M15.0698 21.0833V13.661H17.5614L17.9342 10.7688H15.0688V8.92204C15.0688 8.08446 15.3017 7.51329 16.5034 7.51329H18.0349V4.92579C17.2932 4.84687 16.5478 4.80848 15.8019 4.81079C13.5939 4.81079 12.0827 6.15917 12.0827 8.63454V10.7688H9.58332V13.661H12.0817V21.0833H2.97466C2.39007 21.0833 1.91666 20.6099 1.91666 20.0253V2.97463C1.91666 2.39004 2.39007 1.91663 2.97466 1.91663H20.0253C20.6099 1.91663 21.0833 2.39004 21.0833 2.97463V20.0253C21.0833 20.6099 20.6099 21.0833 20.0253 21.0833H15.0698Z" fill="white"/>
</svg>
