<svg width="1440" height="1024" viewBox="0 0 1440 1024" fill="none" xmlns="http://www.w3.org/2000/svg">
<g clip-path="url(#clip0_9_9)">
<rect width="1440" height="1024" fill="#F3F4F7"/>
<path fill-rule="evenodd" clip-rule="evenodd" d="M0 180L39.6 174C80.4 168 159.6 156 240 180C320.4 204 399.6 264 480 264C560.4 264 639.6 204 720 168C800.4 132 879.6 120 960 96C1040.4 72 1119.6 36 1200 42C1280.4 48 1359.6 96 1400.4 120L1440 144V0H1400.4C1359.6 0 1280.4 0 1200 0C1119.6 0 1040.4 0 960 0C879.6 0 800.4 0 720 0C639.6 0 560.4 0 480 0C399.6 0 320.4 0 240 0C159.6 0 80.4 0 39.6 0H0V180Z" fill="#0076BF"/>
<path fill-rule="evenodd" clip-rule="evenodd" d="M0 1024L34 1010C69 995 137 966 206 938C274 909 343 880 411 873C480 866 549 880 617 887C686 894 754 894 823 873C891 851 960 808 1029 794C1097 779 1166 794 1234 779C1303 765 1371 722 1406 700L1440 678V1024H1406C1371 1024 1303 1024 1234 1024C1166 1024 1097 1024 1029 1024C960 1024 891 1024 823 1024C754 1024 686 1024 617 1024C549 1024 480 1024 411 1024C343 1024 274 1024 206 1024C137 1024 69 1024 34 1024H0Z" fill="#0076BF"/>
</g>
<defs>
<clipPath id="clip0_9_9">
<rect width="1440" height="1024" fill="white"/>
</clipPath>
</defs>
</svg>
