<svg width="23" height="23" viewBox="0 0 23 23" fill="none" xmlns="http://www.w3.org/2000/svg">
<path d="M20.0742 7.95898C20.0645 7.23316 19.9287 6.51455 19.6727 5.83531C19.4507 5.26237 19.1116 4.74204 18.6771 4.30757C18.2427 3.87309 17.7223 3.53402 17.1494 3.31202C16.4789 3.06032 15.7705 2.92422 15.0545 2.90952C14.1325 2.86831 13.8403 2.85681 11.5 2.85681C9.15976 2.85681 8.8598 2.85681 7.94459 2.90952C7.22887 2.92433 6.52084 3.06043 5.85063 3.31202C5.2776 3.53386 4.75719 3.87288 4.3227 4.30738C3.8882 4.74187 3.54918 5.26228 3.32734 5.83531C3.07514 6.50531 2.93933 7.2135 2.9258 7.92927C2.88459 8.85214 2.87213 9.14444 2.87213 11.4847C2.87213 13.8249 2.87213 14.1239 2.9258 15.0401C2.94017 15.7569 3.0753 16.4642 3.32734 17.136C3.54956 17.7088 3.88882 18.229 4.32347 18.6633C4.75811 19.0977 5.27857 19.4365 5.85159 19.6583C6.51996 19.9201 7.22811 20.066 7.94555 20.0896C8.86842 20.1308 9.16072 20.1432 11.501 20.1432C13.8412 20.1432 14.1412 20.1432 15.0564 20.0896C15.7724 20.0755 16.4808 19.9397 17.1513 19.688C17.7241 19.4658 18.2443 19.1266 18.6787 18.6922C19.1132 18.2577 19.4523 17.7375 19.6746 17.1647C19.9266 16.4939 20.0618 15.7866 20.0761 15.0689C20.1173 14.1469 20.1298 13.8546 20.1298 11.5134C20.1279 9.17319 20.1279 8.8761 20.0742 7.95898ZM11.4943 15.9103C9.04667 15.9103 7.06388 13.9275 7.06388 11.4799C7.06388 9.03231 9.04667 7.04952 11.4943 7.04952C12.6693 7.04952 13.7961 7.51629 14.627 8.34715C15.4579 9.178 15.9246 10.3049 15.9246 11.4799C15.9246 12.6549 15.4579 13.7818 14.627 14.6126C13.7961 15.4435 12.6693 15.9103 11.4943 15.9103ZM16.101 7.91873C15.9653 7.91885 15.8309 7.89222 15.7055 7.84035C15.5801 7.78847 15.4661 7.71238 15.3702 7.61643C15.2742 7.52047 15.1981 7.40653 15.1463 7.28114C15.0944 7.15574 15.0678 7.02135 15.0679 6.88564C15.0679 6.75004 15.0946 6.61577 15.1465 6.49048C15.1984 6.3652 15.2744 6.25137 15.3703 6.15548C15.4662 6.0596 15.58 5.98354 15.7053 5.93164C15.8306 5.87975 15.9649 5.85304 16.1005 5.85304C16.2361 5.85304 16.3704 5.87975 16.4956 5.93164C16.6209 5.98354 16.7348 6.0596 16.8306 6.15548C16.9265 6.25137 17.0026 6.3652 17.0545 6.49048C17.1064 6.61577 17.1331 6.75004 17.1331 6.88564C17.1331 7.45681 16.6712 7.91873 16.101 7.91873Z" fill="white"/>
<path d="M11.4942 14.3578C13.0836 14.3578 14.3721 13.0693 14.3721 11.4799C14.3721 9.89052 13.0836 8.60205 11.4942 8.60205C9.90483 8.60205 8.61636 9.89052 8.61636 11.4799C8.61636 13.0693 9.90483 14.3578 11.4942 14.3578Z" fill="white"/>
</svg>
