<svg width="48" height="36" viewBox="0 0 48 36" fill="none" xmlns="http://www.w3.org/2000/svg">
<path d="M31.8125 18C29.8047 18 27.8633 17.1035 26.3438 15.4766C24.8662 13.8896 23.9639 11.7734 23.8047 9.51953C23.6348 7.11524 24.3682 4.9043 25.8692 3.29297C27.3701 1.68164 29.4688 0.8125 31.8125 0.8125C34.1397 0.8125 36.2442 1.69727 37.7402 3.30469C39.251 4.92773 39.9863 7.13477 39.8164 9.51855C39.6533 11.7754 38.752 13.8906 37.2774 15.4756C35.7617 17.1035 33.8213 18 31.8125 18ZM44.6865 35.1875H18.9395C18.5255 35.1897 18.1166 35.0969 17.7441 34.9163C17.3716 34.7356 17.0456 34.472 16.791 34.1455C16.521 33.7916 16.3345 33.3812 16.2456 32.9451C16.1566 32.5089 16.1675 32.0583 16.2774 31.627C17.0996 28.3252 19.1367 25.5869 22.168 23.709C24.8584 22.043 28.2832 21.125 31.8125 21.125C35.4111 21.125 38.7461 22.0039 41.4522 23.6689C44.4902 25.5371 46.5303 28.291 47.3486 31.6328C47.4572 32.0645 47.4668 32.5151 47.3769 32.951C47.2869 33.387 47.0997 33.7969 46.8291 34.1504C46.5748 34.4753 46.2495 34.7377 45.8781 34.9175C45.5067 35.0973 45.0991 35.1896 44.6865 35.1875ZM13.3555 18.3906C9.91896 18.3906 6.89747 15.1953 6.6172 11.2686C6.47853 9.25684 7.10548 7.39648 8.37501 6.03223C9.63087 4.68164 11.4024 3.9375 13.3555 3.9375C15.3086 3.9375 17.0664 4.68555 18.3291 6.04395C19.6084 7.41895 20.2334 9.27539 20.0869 11.2705C19.8067 15.1963 16.7861 18.3906 13.3555 18.3906ZM19.7676 21.4619C18.0498 20.6221 15.8203 20.2021 13.3565 20.2021C10.4795 20.2021 7.68556 20.9522 5.48829 22.3135C2.99708 23.8594 1.3213 26.1104 0.644542 28.8281C0.545504 29.219 0.536137 29.6273 0.617141 30.0223C0.698145 30.4174 0.867424 30.789 1.11232 31.1094C1.34469 31.4077 1.64238 31.6487 1.9825 31.814C2.32262 31.9792 2.6961 32.0642 3.07423 32.0625H13.9141C14.097 32.0625 14.2742 31.9982 14.4146 31.881C14.5551 31.7637 14.6499 31.6009 14.6826 31.4209C14.6934 31.3594 14.707 31.2979 14.7227 31.2373C15.5508 27.9111 17.4912 25.1006 20.3584 23.0518C20.4639 22.9757 20.5487 22.8746 20.6052 22.7575C20.6617 22.6405 20.6881 22.5111 20.682 22.3813C20.6759 22.2514 20.6374 22.1252 20.5702 22.0139C20.503 21.9026 20.409 21.8099 20.2969 21.7441C20.1436 21.6543 19.9678 21.5596 19.7676 21.4619Z" fill="white"/>
</svg>
