<svg width="37" height="37" viewBox="0 0 37 37" fill="none" xmlns="http://www.w3.org/2000/svg">
<path d="M26.2917 23.1667H24.6458L24.0625 22.6042C26.1747 20.1542 27.3356 17.0265 27.3333 13.7917C27.3333 11.1134 26.5391 8.49524 25.0512 6.26833C23.5632 4.04141 21.4483 2.30574 18.9738 1.2808C16.4994 0.255867 13.7766 -0.0123028 11.1498 0.510205C8.523 1.03271 6.1101 2.32243 4.21627 4.21627C2.32243 6.1101 1.03271 8.523 0.510205 11.1498C-0.0123028 13.7766 0.255867 16.4994 1.2808 18.9738C2.30574 21.4483 4.04141 23.5632 6.26833 25.0512C8.49524 26.5391 11.1134 27.3333 13.7917 27.3333C17.1458 27.3333 20.2292 26.1042 22.6042 24.0625L23.1667 24.6458V26.2917L33.5833 36.6875L36.6875 33.5833L26.2917 23.1667ZM13.7917 23.1667C8.60417 23.1667 4.41667 18.9792 4.41667 13.7917C4.41667 8.60417 8.60417 4.41667 13.7917 4.41667C18.9792 4.41667 23.1667 8.60417 23.1667 13.7917C23.1667 18.9792 18.9792 23.1667 13.7917 23.1667Z" fill="black"/>
</svg>
