<svg width="22" height="42" viewBox="0 0 22 42" fill="none" xmlns="http://www.w3.org/2000/svg">
<path d="M17.25 23.0834V6.41669C17.25 2.95835 14.4583 0.166687 11 0.166687C7.54167 0.166687 4.75 2.95835 4.75 6.41669V23.0834C2.22917 24.9792 0.583336 28.0209 0.583336 31.4167C0.583336 37.1667 5.25 41.8334 11 41.8334C16.75 41.8334 21.4167 37.1667 21.4167 31.4167C21.4167 28.0209 19.7708 24.9792 17.25 23.0834ZM8.91667 18.9167V6.41669C8.91667 5.27085 9.85417 4.33335 11 4.33335C12.1458 4.33335 13.0833 5.27085 13.0833 6.41669V8.50002H11V10.5834H13.0833V14.75H11V16.8334H13.0833V18.9167H8.91667Z" fill="white"/>
</svg>
