<svg width="23" height="23" viewBox="0 0 23 23" fill="none" xmlns="http://www.w3.org/2000/svg">
<path d="M21.0833 5.55829C20.363 5.8708 19.6012 6.07738 18.8217 6.17162C19.6441 5.68031 20.2604 4.90737 20.5562 3.99621C19.7834 4.45627 18.9374 4.78041 18.055 4.95454C17.4652 4.31492 16.6798 3.88916 15.8219 3.74402C14.964 3.59889 14.0823 3.74259 13.3149 4.1526C12.5475 4.5626 11.9379 5.21572 11.5817 6.00951C11.2255 6.8033 11.1428 7.69287 11.3467 8.53871C9.78402 8.45967 8.2555 8.05279 6.86037 7.34449C5.46524 6.63619 4.23472 5.64233 3.24874 4.42746C2.90291 5.03137 2.7212 5.71529 2.72166 6.41121C2.72043 7.05749 2.87903 7.69405 3.18334 8.26421C3.48765 8.83436 3.92822 9.32043 4.46582 9.67912C3.84097 9.66212 3.22946 9.49445 2.68332 9.19037V9.23829C2.68801 10.1438 3.00532 11.0199 3.58158 11.7184C4.15785 12.4169 4.95769 12.8949 5.84582 13.0716C5.50394 13.1757 5.14899 13.2305 4.79166 13.2345C4.5443 13.2317 4.29756 13.2092 4.05374 13.1675C4.30665 13.9464 4.79609 14.6271 5.45394 15.1149C6.11179 15.6027 6.90533 15.8734 7.72416 15.8891C6.34148 16.9771 4.63438 17.5709 2.87499 17.5758C2.55465 17.5768 2.23457 17.5576 1.91666 17.5183C3.71298 18.6781 5.80635 19.2938 7.94457 19.2912C9.42011 19.3065 10.8839 19.0277 12.2505 18.471C13.617 17.9142 14.859 17.0908 15.9037 16.0487C16.9485 15.0066 17.7751 13.7668 18.3354 12.4017C18.8956 11.0365 19.1782 9.57345 19.1667 8.09787V7.58996C19.9187 7.02915 20.5672 6.34166 21.0833 5.55829Z" fill="white"/>
</svg>
